<svg height="1550" width="720" xmlns="http://www.w3.org/2000/svg">
<rect height="1550" fill="#555" width="720"></rect>
<text fill="#7f7" font-family="Courier New" font-size="12" xml:space="preserve">
<tspan x="10" y="26">45 megabytes installed</tspan>
<tspan x="10" y="42"></tspan>
<tspan x="10" y="58">node_modules</tspan>
<tspan x="10" y="74">└─┬ grunt-bower-task@0.5.0 </tspan>
<tspan x="10" y="90">  ├─┬ async@2.3.0 </tspan>
<tspan x="10" y="106">  │ └── lodash@4.17.4 </tspan>
<tspan x="10" y="122">  ├── bower@1.8.0 </tspan>
<tspan x="10" y="138">  ├─┬ bower-json@0.8.1 </tspan>
<tspan x="10" y="154">  │ ├── deep-extend@0.4.1 </tspan>
<tspan x="10" y="170">  │ ├─┬ ext-name@3.0.0 </tspan>
<tspan x="10" y="186">  │ │ ├── ends-with@0.2.0 </tspan>
<tspan x="10" y="202">  │ │ ├─┬ ext-list@2.2.0 </tspan>
<tspan x="10" y="218">  │ │ │ └─┬ got@2.9.2 </tspan>
<tspan x="10" y="234">  │ │ │   ├─┬ duplexify@3.5.0 </tspan>
<tspan x="10" y="250">  │ │ │   │ ├── end-of-stream@1.0.0 </tspan>
<tspan x="10" y="266">  │ │ │   │ ├─┬ readable-stream@2.2.9 </tspan>
<tspan x="10" y="282">  │ │ │   │ │ ├── buffer-shims@1.0.0 </tspan>
<tspan x="10" y="298">  │ │ │   │ │ ├── core-util-is@1.0.2 </tspan>
<tspan x="10" y="314">  │ │ │   │ │ ├── isarray@1.0.0 </tspan>
<tspan x="10" y="330">  │ │ │   │ │ ├── process-nextick-args@1.0.7 </tspan>
<tspan x="10" y="346">  │ │ │   │ │ ├── string_decoder@1.0.0 </tspan>
<tspan x="10" y="362">  │ │ │   │ │ └── util-deprecate@1.0.2 </tspan>
<tspan x="10" y="378">  │ │ │   │ └── stream-shift@1.0.0 </tspan>
<tspan x="10" y="394">  │ │ │   ├── infinity-agent@2.0.3 </tspan>
<tspan x="10" y="410">  │ │ │   ├── is-stream@1.1.0 </tspan>
<tspan x="10" y="426">  │ │ │   ├── lowercase-keys@1.0.0 </tspan>
<tspan x="10" y="442">  │ │ │   ├── nested-error-stacks@1.0.2 </tspan>
<tspan x="10" y="458">  │ │ │   ├── object-assign@2.1.1 </tspan>
<tspan x="10" y="474">  │ │ │   ├── prepend-http@1.0.4 </tspan>
<tspan x="10" y="490">  │ │ │   ├── read-all-stream@2.2.0 </tspan>
<tspan x="10" y="506">  │ │ │   ├── statuses@1.3.1 </tspan>
<tspan x="10" y="522">  │ │ │   └── timed-out@2.0.0 </tspan>
<tspan x="10" y="538">  │ │ ├─┬ meow@3.7.0 </tspan>
<tspan x="10" y="554">  │ │ │ ├─┬ camelcase-keys@2.1.0 </tspan>
<tspan x="10" y="570">  │ │ │ │ └── camelcase@2.1.1 </tspan>
<tspan x="10" y="586">  │ │ │ ├── decamelize@1.2.0 </tspan>
<tspan x="10" y="602">  │ │ │ ├─┬ loud-rejection@1.6.0 </tspan>
<tspan x="10" y="618">  │ │ │ │ ├─┬ currently-unhandled@0.4.1 </tspan>
<tspan x="10" y="634">  │ │ │ │ │ └── array-find-index@1.0.2 </tspan>
<tspan x="10" y="650">  │ │ │ │ └── signal-exit@3.0.2 </tspan>
<tspan x="10" y="666">  │ │ │ ├── map-obj@1.0.1 </tspan>
<tspan x="10" y="682">  │ │ │ ├── minimist@1.2.0 </tspan>
<tspan x="10" y="698">  │ │ │ ├─┬ normalize-package-data@2.3.6 </tspan>
<tspan x="10" y="714">  │ │ │ │ ├── hosted-git-info@2.4.2 </tspan>
<tspan x="10" y="730">  │ │ │ │ ├─┬ is-builtin-module@1.0.0 </tspan>
<tspan x="10" y="746">  │ │ │ │ │ └── builtin-modules@1.1.1 </tspan>
<tspan x="10" y="762">  │ │ │ │ ├── semver@5.3.0 </tspan>
<tspan x="10" y="778">  │ │ │ │ └─┬ validate-npm-package-license@3.0.1 </tspan>
<tspan x="10" y="794">  │ │ │ │   ├─┬ spdx-correct@1.0.2 </tspan>
<tspan x="10" y="810">  │ │ │ │   │ └── spdx-license-ids@1.2.2 </tspan>
<tspan x="10" y="826">  │ │ │ │   └── spdx-expression-parse@1.0.4 </tspan>
<tspan x="10" y="842">  │ │ │ ├── object-assign@4.1.1 </tspan>
<tspan x="10" y="858">  │ │ │ ├─┬ read-pkg-up@1.0.1 </tspan>
<tspan x="10" y="874">  │ │ │ │ ├─┬ find-up@1.1.2 </tspan>
<tspan x="10" y="890">  │ │ │ │ │ ├── path-exists@2.1.0 </tspan>
<tspan x="10" y="906">  │ │ │ │ │ └─┬ pinkie-promise@2.0.1 </tspan>
<tspan x="10" y="922">  │ │ │ │ │   └── pinkie@2.0.4 </tspan>
<tspan x="10" y="938">  │ │ │ │ └─┬ read-pkg@1.1.0 </tspan>
<tspan x="10" y="954">  │ │ │ │   ├─┬ load-json-file@1.1.0 </tspan>
<tspan x="10" y="970">  │ │ │ │   │ ├─┬ parse-json@2.2.0 </tspan>
<tspan x="10" y="986">  │ │ │ │   │ │ └─┬ error-ex@1.3.1 </tspan>
<tspan x="10" y="1002">  │ │ │ │   │ │   └── is-arrayish@0.2.1 </tspan>
<tspan x="10" y="1018">  │ │ │ │   │ ├── pify@2.3.0 </tspan>
<tspan x="10" y="1034">  │ │ │ │   │ └─┬ strip-bom@2.0.0 </tspan>
<tspan x="10" y="1050">  │ │ │ │   │   └── is-utf8@0.2.1 </tspan>
<tspan x="10" y="1066">  │ │ │ │   └── path-type@1.1.0 </tspan>
<tspan x="10" y="1082">  │ │ │ ├─┬ redent@1.0.0 </tspan>
<tspan x="10" y="1098">  │ │ │ │ ├─┬ indent-string@2.1.0 </tspan>
<tspan x="10" y="1114">  │ │ │ │ │ └─┬ repeating@2.0.1 </tspan>
<tspan x="10" y="1130">  │ │ │ │ │   └─┬ is-finite@1.0.2 </tspan>
<tspan x="10" y="1146">  │ │ │ │ │     └── number-is-nan@1.0.1 </tspan>
<tspan x="10" y="1162">  │ │ │ │ └─┬ strip-indent@1.0.1 </tspan>
<tspan x="10" y="1178">  │ │ │ │   └── get-stdin@4.0.1 </tspan>
<tspan x="10" y="1194">  │ │ │ └── trim-newlines@1.0.0 </tspan>
<tspan x="10" y="1210">  │ │ └─┬ sort-keys-length@1.0.1 </tspan>
<tspan x="10" y="1226">  │ │   └─┬ sort-keys@1.1.2 </tspan>
<tspan x="10" y="1242">  │ │     └── is-plain-obj@1.1.0 </tspan>
<tspan x="10" y="1258">  │ ├── graceful-fs@4.1.11 </tspan>
<tspan x="10" y="1274">  │ └── intersect@1.0.1 </tspan>
<tspan x="10" y="1290">  ├── colors@1.1.2 </tspan>
<tspan x="10" y="1306">  ├─┬ fs-extra@2.1.2 </tspan>
<tspan x="10" y="1322">  │ └── jsonfile@2.4.0 </tspan>
<tspan x="10" y="1338">  ├── lodash@0.10.0 </tspan>
<tspan x="10" y="1354">  └─┬ rimraf@2.6.1 </tspan>
<tspan x="10" y="1370">    └─┬ glob@7.1.1 </tspan>
<tspan x="10" y="1386">      ├── fs.realpath@1.0.0 </tspan>
<tspan x="10" y="1402">      ├─┬ inflight@1.0.6 </tspan>
<tspan x="10" y="1418">      │ └── wrappy@1.0.2 </tspan>
<tspan x="10" y="1434">      ├── inherits@2.0.3 </tspan>
<tspan x="10" y="1450">      ├─┬ minimatch@3.0.3 </tspan>
<tspan x="10" y="1466">      │ └─┬ brace-expansion@1.1.7 </tspan>
<tspan x="10" y="1482">      │   ├── balanced-match@0.4.2 </tspan>
<tspan x="10" y="1498">      │   └── concat-map@0.0.1 </tspan>
<tspan x="10" y="1514">      ├── once@1.3.3 </tspan>
<tspan x="10" y="1530">      └── path-is-absolute@1.0.1</tspan>
</text>
</svg>
